<svg width="24" height="24" viewBox="0 0 24 24" fill="none" xmlns="http://www.w3.org/2000/svg">
<path d="M12 1.49976C9.81276 1.50235 7.71585 2.37238 6.16924 3.91899C4.62262 5.4656 3.7526 7.56251 3.75 9.74975C3.75 16.8088 11.25 22.1409 11.5693 22.3643C11.6956 22.4524 11.846 22.4997 12 22.4997C12.154 22.4997 12.3044 22.4524 12.4307 22.3643C12.75 22.1409 20.25 16.8088 20.25 9.74975C20.2474 7.56251 19.3774 5.4656 17.8308 3.91899C16.2842 2.37238 14.1872 1.50235 12 1.49976ZM12.0005 6.75003C12.5939 6.75003 13.1739 6.92597 13.6673 7.25562C14.1606 7.58526 14.5451 8.0538 14.7722 8.60197C14.9993 9.15015 15.0587 9.75335 14.9429 10.3353C14.8271 10.9172 14.5414 11.4518 14.1219 11.8713C13.7023 12.2909 13.1678 12.5766 12.5858 12.6924C12.0039 12.8081 11.4007 12.7487 10.8525 12.5217C10.3043 12.2946 9.83578 11.9101 9.50614 11.4167C9.1765 10.9234 9.00055 10.3434 9.00055 9.75002C9.00054 9.35606 9.07813 8.96594 9.22889 8.60196C9.37965 8.23798 9.60063 7.90726 9.8792 7.62868C10.1578 7.3501 10.4885 7.12912 10.8525 6.97836C11.2165 6.8276 11.6066 6.75001 12.0005 6.75003Z" fill="#0088CF"/>
</svg>
